<?xml version="1.0" encoding="UTF-8"?>
<svg version="1.1" xmlns="http://www.w3.org/2000/svg" width="887" height="254">
<path d="M0 0 C292.71 0 585.42 0 887 0 C887 83.82 887 167.64 887 254 C594.29 254 301.58 254 0 254 C0 170.18 0 86.36 0 0 Z " fill="transparent"
 transform="translate(0,0)"/>
<path d="M0 0 C0.82260315 -0.00287018 1.6452063 -0.00574036 2.49273682 -0.00869751 C4.23442268 -0.01073898 5.97613143 -0.00520327 7.71777344 0.00732422 C10.36706773 0.02329549 13.01481742 0.00752158 15.6640625 -0.01171875 C17.35937834 -0.00973473 19.05469322 -0.00588777 20.75 0 C21.53566345 -0.00607269 22.3213269 -0.01214539 23.13079834 -0.0184021 C28.35125064 0.04737014 32.05620225 0.8249458 36.640625 3.3984375 C38.40991211 5.50463867 38.40991211 5.50463867 39.66796875 7.94140625 C40.14556641 8.84173584 40.62316406 9.74206543 41.11523438 10.66967773 C41.59798828 11.63204346 42.08074219 12.59440918 42.578125 13.5859375 C43.09826172 14.58117432 43.61839844 15.57641113 44.15429688 16.60180664 C45.67321783 19.52271799 47.16208146 22.45691951 48.640625 25.3984375 C49.0133252 26.13384766 49.38602539 26.86925781 49.77001953 27.62695312 C51.37327515 30.79430327 52.95444003 33.9718137 54.5234375 37.15625 C58.59381188 45.37244959 62.90678641 53.46788441 67.16650391 61.58691406 C68.52951471 64.18652195 69.88843143 66.78822106 71.24609375 69.390625 C77.2182156 80.81565591 83.39713532 92.11979858 89.640625 103.3984375 C90.47871704 101.75198242 90.47871704 101.75198242 91.33374023 100.07226562 C93.44950064 95.91802999 95.569725 91.76608527 97.69116211 87.61474609 C98.60087009 85.83312121 99.50943852 84.05091391 100.41674805 82.26806641 C105.31998076 72.63526279 110.27407375 63.05564034 115.6592865 53.68151855 C118.01887132 49.56733839 120.17703035 45.40398327 122.265625 41.1484375 C125.84900044 33.89071235 129.57907882 26.71367392 133.37469482 19.56506348 C134.04761927 18.29554269 134.71794469 17.02464058 135.38555908 15.75231934 C136.33315187 13.9481311 137.2903109 12.1493394 138.25 10.3515625 C138.80655273 9.30129883 139.36310547 8.25103516 139.93652344 7.16894531 C142.93654693 2.29154323 142.93654693 2.29154323 145.640625 0.3984375 C148.72990108 -0.16291791 151.76258145 -0.11442776 154.89453125 -0.0625 C155.79179428 -0.06158356 156.68905731 -0.06066711 157.61351013 -0.0597229 C159.50728659 -0.05368904 161.4010536 -0.03794946 163.29467773 -0.01318359 C166.19615759 0.02334977 169.09636091 0.02783552 171.99804688 0.02734375 C173.83855272 0.0371742 175.67904991 0.04883088 177.51953125 0.0625 C178.38832413 0.06472565 179.257117 0.06695129 180.15223694 0.06924438 C181.36380714 0.08838394 181.36380714 0.08838394 182.59985352 0.10791016 C183.66430443 0.11934555 183.66430443 0.11934555 184.7502594 0.13101196 C186.640625 0.3984375 186.640625 0.3984375 189.640625 2.3984375 C190.00976849 5.34633827 190.00976849 5.34633827 190.00138855 9.20669556 C190.00395182 9.91485896 190.0065151 10.62302237 190.00915605 11.35264528 C190.01411716 13.73744074 189.99756343 16.12161005 189.98120117 18.50634766 C189.9803554 20.21105433 189.98082907 21.9157621 189.98252869 23.62046814 C189.98339201 28.25872655 189.96571185 32.89675383 189.94480681 37.53495836 C189.92609606 42.37830475 189.92429401 47.22165601 189.92073059 52.06503296 C189.91139362 61.24129478 189.88675754 70.41744981 189.85668212 79.59366453 C189.82318945 90.03847901 189.80666504 100.4832985 189.79159582 110.92815328 C189.76020938 132.4183077 189.70741685 153.90836588 189.640625 175.3984375 C182.50559566 177.51259075 175.10385153 172.77543711 168.83984375 169.41015625 C149.77732607 158.67183963 149.77732607 158.67183963 145.640625 150.3984375 C145.51994815 148.27494849 145.46318125 146.14772862 145.43530273 144.02099609 C145.42540314 143.36721481 145.41550354 142.71343353 145.40530396 142.0398407 C145.37367789 139.87555583 145.34892728 137.711249 145.32421875 135.546875 C145.30365017 134.04757105 145.28265372 132.54827291 145.26124573 131.04898071 C145.20601512 127.10018619 145.15661024 123.15133924 145.10839844 119.20245361 C145.05819061 115.17398404 145.0025008 111.14559072 144.94726562 107.1171875 C144.83967197 99.21100194 144.73822971 91.30475265 144.640625 83.3984375 C144.14739243 84.30629753 144.14739243 84.30629753 143.64419556 85.23249817 C137.84741144 95.89665177 132.05018415 106.55408642 126.015625 117.0859375 C120.32872294 127.07406106 114.91812873 137.18890996 109.640625 147.3984375 C128.14499864 169.68063393 150.83520614 182.47050459 177.640625 192.3984375 C177.640625 196.3984375 177.640625 196.3984375 176.51074219 198.0300293 C175.99157227 198.54734619 175.47240234 199.06466309 174.9375 199.59765625 C174.36902344 200.16677734 173.80054688 200.73589844 173.21484375 201.32226562 C172.61285156 201.90427734 172.01085937 202.48628906 171.390625 203.0859375 C170.80410156 203.67955078 170.21757812 204.27316406 169.61328125 204.88476562 C164.57150921 209.8528938 164.57150921 209.8528938 160.640625 210.3984375 C158.15850195 209.8331141 155.8590486 209.19603285 153.453125 208.3984375 C152.7511499 208.1705957 152.0491748 207.94275391 151.32592773 207.70800781 C132.07981725 201.31185174 113.8773986 192.62792554 97.640625 180.3984375 C96.61195312 179.62886719 95.58328125 178.85929688 94.5234375 178.06640625 C81.48881636 167.80122752 73.60370466 154.67574085 65.640625 140.3984375 C65.04975098 139.33995605 64.45887695 138.28147461 63.85009766 137.19091797 C40.90425054 95.98311048 40.90425054 95.98311048 34.640625 83.3984375 C34.4352886 90.08327822 34.29666384 96.7672872 34.20117188 103.45458984 C34.16130549 105.72215148 34.10699 107.98951246 34.03710938 110.25634766 C33.58923164 125.17462821 34.55401984 135.73540867 42.640625 148.3984375 C43.96552055 150.77737184 45.23630837 153.18189919 46.515625 155.5859375 C50.63061997 162.68775327 55.45627432 169.03851628 60.640625 175.3984375 C61.06762695 175.92550293 61.49462891 176.45256836 61.93457031 176.99560547 C65.49650822 181.34535708 69.3277491 184.82093675 73.640625 188.3984375 C74.16446777 188.83994141 74.68831055 189.28144531 75.22802734 189.73632812 C93.58998537 205.16099233 114.29297364 215.77137438 136.640625 224.3984375 C135.640625 227.3984375 135.640625 227.3984375 133.69921875 228.609375 C128.02555512 231.12912427 122.29321367 233.29996326 116.390625 235.2109375 C115.7298999 235.42991699 115.0691748 235.64889648 114.38842773 235.87451172 C105.45106274 238.65045214 99.86042113 237.1258989 91.765625 233.1484375 C90.84523438 232.70097168 89.92484375 232.25350586 88.9765625 231.79248047 C68.25343401 221.40587101 52.4858837 206.85149175 38.96826172 188.22265625 C37.54501114 186.26706075 36.09183089 184.33337869 34.640625 182.3984375 C34.310625 194.9384375 33.980625 207.4784375 33.640625 220.3984375 C28.74210114 219.41873273 26.0309469 217.94058452 22.140625 215.0859375 C21.53404053 214.64660889 20.92745605 214.20728027 20.30249023 213.75463867 C13.61262892 208.80159328 7.61603075 203.17685185 1.640625 197.3984375 C0.57328125 196.4084375 0.57328125 196.4084375 -0.515625 195.3984375 C-2.21377018 193.78966838 -3.78578543 192.12855489 -5.359375 190.3984375 C-5.8827391 189.84286856 -6.40610319 189.28729961 -6.94532681 188.71489525 C-12.91287981 181.2880384 -12.18470367 173.10788839 -12.08813477 164.08447266 C-12.09135737 162.33433393 -12.09717958 160.58419835 -12.10539246 158.83407593 C-12.11987536 154.1028339 -12.09705554 149.37244695 -12.06653333 144.64130831 C-12.04010744 139.68596207 -12.04546565 134.73064038 -12.0466156 129.77523804 C-12.04381072 121.46150461 -12.0178196 113.1481008 -11.97680664 104.83447266 C-11.92954213 95.21795819 -11.91381578 85.60180367 -11.9160133 75.98518145 C-11.91784258 66.73041005 -11.90254662 57.47575593 -11.87763786 48.22101974 C-11.86703774 44.28247538 -11.86154794 40.34397251 -11.85995674 36.40541458 C-11.85694869 31.77433423 -11.83867812 27.14355732 -11.80845833 22.51257706 C-11.79967987 20.81098793 -11.79600794 19.10936388 -11.79774094 17.40775299 C-11.79920838 15.09024614 -11.78229568 12.77359511 -11.76051331 10.45620728 C-11.75548577 9.15802881 -11.75045824 7.85985035 -11.74527836 6.52233315 C-11.359375 3.3984375 -11.359375 3.3984375 -10.0666647 1.48158836 C-7.02824367 -0.4460683 -3.48794592 -0.02668466 0 0 Z " fill="#00E65E" transform="translate(25.359375,12.6015625)"/>
<path d="M0 0 C1.09445938 0.00212242 1.09445938 0.00212242 2.21102905 0.00428772 C4.54437335 0.00989094 6.87762214 0.0224439 9.2109375 0.03515625 C10.79166528 0.04017084 12.37239457 0.04473382 13.953125 0.04882812 C17.83076604 0.05986141 21.70833557 0.07712814 25.5859375 0.09765625 C28.23998028 5.91455291 30.67054628 11.76619258 32.87890625 17.765625 C33.1826265 18.58349487 33.48634674 19.40136475 33.79927063 20.24401855 C34.79344822 22.92337356 35.78348328 25.60423826 36.7734375 28.28515625 C37.46981475 30.16455736 38.1664338 32.04386889 38.86328125 33.9230957 C40.71838966 38.92844923 42.5696861 43.93520379 44.41986084 48.94238281 C45.61080746 52.1649516 46.80259322 55.38720891 47.99462891 58.609375 C52.86340627 71.77028785 57.7271692 84.93304506 62.5859375 98.09765625 C64.98399813 95.69959562 65.58171257 93.78356833 66.73388672 90.59521484 C67.15585327 89.4363678 67.57781982 88.27752075 68.01257324 87.08355713 C68.47200114 85.80443043 68.93134944 84.52527515 69.390625 83.24609375 C69.8707698 81.92182607 70.35145206 80.59775316 70.8326416 79.27386475 C71.85282957 76.46413635 72.86971668 73.65324492 73.88397217 70.84136963 C75.45529601 66.48567584 77.03444312 62.13284975 78.61572266 57.78076172 C78.87510809 57.06683069 79.13449352 56.35289967 79.40173912 55.61733437 C79.92280052 54.1832469 80.44389247 52.74917054 80.96501541 51.31510544 C81.74070506 49.17986196 82.51573497 47.04437999 83.2906189 44.90884399 C87.13097605 34.32810481 91.01059282 23.76285723 94.9609375 13.22265625 C95.20309998 12.57302917 95.44526245 11.9234021 95.69476318 11.25408936 C96.35079301 9.49509124 97.01116666 7.73771489 97.671875 5.98046875 C98.1985376 4.57885498 98.1985376 4.57885498 98.73583984 3.14892578 C99.5859375 1.09765625 99.5859375 1.09765625 100.5859375 0.09765625 C103.02254196 -0.00317139 105.43018451 -0.04206978 107.8671875 -0.03515625 C108.59587036 -0.03611298 109.32455322 -0.0370697 110.07531738 -0.03805542 C111.6187346 -0.0387371 113.16215467 -0.03688363 114.70556641 -0.03271484 C117.0759115 -0.02736637 119.44606709 -0.03266017 121.81640625 -0.0390625 C123.31250042 -0.03840172 124.80859447 -0.03712055 126.3046875 -0.03515625 C127.37499207 -0.0381926 127.37499207 -0.0381926 128.46691895 -0.04129028 C133.47098559 -0.01729566 133.47098559 -0.01729566 134.5859375 1.09765625 C134.6845107 2.89228393 134.71225862 4.6908265 134.71292114 6.48815918 C134.71574097 7.6576561 134.71856079 8.82715302 134.72146606 10.03208923 C134.71842972 11.97396873 134.71842972 11.97396873 134.71533203 13.95507812 C134.71668605 15.3230443 134.71846599 16.69101011 134.72064209 18.05897522 C134.72521631 21.78407999 134.72342691 25.50915719 134.720263 29.23426247 C134.71773934 33.12423403 134.72007696 37.01420316 134.72164917 40.9041748 C134.72347085 47.43791123 134.7210646 53.97163638 134.71630859 60.50537109 C134.71086598 68.06993308 134.71262863 75.63446811 134.718135 83.19902945 C134.72266618 89.68224109 134.72331665 96.1654446 134.72069633 102.64865732 C134.71913358 106.5258621 134.71893972 110.4030542 134.72223282 114.28025818 C134.72511161 117.92453212 134.7231357 121.56877116 134.71733856 125.21304131 C134.71537538 127.1964348 134.71836481 129.17983123 134.72146606 131.16322327 C134.71864624 132.33272018 134.71582642 133.5022171 134.71292114 134.70715332 C134.7123556 136.2413731 134.7123556 136.2413731 134.71177864 137.80658722 C134.5859375 140.09765625 134.5859375 140.09765625 133.5859375 141.09765625 C131.81734557 141.19712078 130.04482299 141.22845842 128.2734375 141.23046875 C127.19835937 141.23175781 126.12328125 141.23304688 125.015625 141.234375 C123.88382813 141.23050781 122.75203125 141.22664062 121.5859375 141.22265625 C119.88824219 141.22845703 119.88824219 141.22845703 118.15625 141.234375 C117.08117187 141.23308594 116.00609375 141.23179687 114.8984375 141.23046875 C113.90457031 141.22934082 112.91070312 141.22821289 111.88671875 141.22705078 C109.5859375 141.09765625 109.5859375 141.09765625 108.5859375 140.09765625 C108.46079339 137.39011899 108.39986622 134.70683521 108.38061523 131.99780273 C108.37071564 131.14909607 108.36081604 130.3003894 108.35061646 129.42596436 C108.31890503 126.60692176 108.29420611 123.78786227 108.26953125 120.96875 C108.24897004 119.01961314 108.2279738 117.07048081 108.20655823 115.12135315 C108.15125152 109.98063832 108.1018803 104.83988268 108.05371094 99.69909668 C108.00355853 94.45756378 107.94783987 89.21609045 107.89257812 83.97460938 C107.78489144 73.6823425 107.68346997 63.390024 107.5859375 53.09765625 C96.20389372 82.41236098 84.85437457 111.73908255 73.5859375 141.09765625 C66.6559375 141.09765625 59.7259375 141.09765625 52.5859375 141.09765625 C45.1949207 122.80592193 37.98347697 104.45266462 30.92749023 86.02905273 C30.62486267 85.23895309 30.32223511 84.44885345 30.01043701 83.6348114 C29.45951848 82.19567359 28.90910106 80.75634373 28.35943604 79.31672668 C25.13888052 70.89598254 21.85701342 62.49886667 18.5859375 54.09765625 C18.57563004 55.17285019 18.56532257 56.24804413 18.55470276 57.3558197 C18.45714331 67.46555814 18.35442627 77.57523262 18.24659824 87.68486691 C18.19132408 92.88290678 18.13789704 98.08095224 18.08862305 103.27905273 C18.0410456 108.29112887 17.98870546 113.30313429 17.93299675 118.31512642 C17.9125431 120.23175875 17.89383511 122.1484105 17.87686348 124.06507683 C17.85288584 126.73998951 17.82282263 129.41476723 17.79125977 132.08959961 C17.78262657 133.29045197 17.78262657 133.29045197 17.77381897 134.51556396 C17.69998966 139.98360409 17.69998966 139.98360409 16.5859375 141.09765625 C14.74434727 141.19725246 12.89896783 141.22846036 11.0546875 141.23046875 C9.93449219 141.23175781 8.81429688 141.23304688 7.66015625 141.234375 C6.48066406 141.23050781 5.30117188 141.22664062 4.0859375 141.22265625 C2.31669922 141.22845703 2.31669922 141.22845703 0.51171875 141.234375 C-1.16857422 141.23244141 -1.16857422 141.23244141 -2.8828125 141.23046875 C-3.91857422 141.22934082 -4.95433594 141.22821289 -6.02148438 141.22705078 C-8.4140625 141.09765625 -8.4140625 141.09765625 -9.4140625 140.09765625 C-9.51045434 138.30071587 -9.53593675 136.49994732 -9.53431702 134.70042419 C-9.53569168 133.52948212 -9.53706635 132.35854004 -9.53848267 131.15211487 C-9.53488739 129.85595749 -9.53129211 128.55980011 -9.52758789 127.22436523 C-9.52730602 125.85477704 -9.52746375 124.48518869 -9.5280304 123.11560059 C-9.52831838 119.38642677 -9.52242159 115.65728484 -9.51545644 111.92811847 C-9.50922297 108.03501212 -9.50861911 104.14190512 -9.50743103 100.24879456 C-9.50431769 92.87167479 -9.49610428 85.49456976 -9.48608154 78.1174565 C-9.47492047 69.72098082 -9.46940997 61.32450446 -9.46438611 52.92802322 C-9.45392166 35.65122569 -9.43632218 18.37444253 -9.4140625 1.09765625 C-6.40193221 -0.4084089 -3.30123628 -0.02394706 0 0 Z " fill="#00E75F" transform="translate(289.4140625,49.90234375)"/>
<path d="M0 0 C1.51113643 0.98309037 3.01304967 1.98069695 4.5 3 C5.8303125 3.86625 5.8303125 3.86625 7.1875 4.75 C18.22871803 15.49280673 23.41577035 29.53530245 23.85595703 44.7265625 C23.98267347 60.27044513 20.31642269 74.22098413 9.4375 85.8125 C-2.87453542 97.32699467 -17.59133587 101.78862054 -34.3203125 101.27734375 C-48.37490194 100.05145204 -60.91645518 94.86973558 -70.5703125 84.3671875 C-82.44505709 69.80019312 -84.08876863 53.17878614 -82.5 35 C-81.24887732 26.4487129 -77.42474585 19.00876929 -72.5 12 C-72.06042969 11.36449219 -71.62085938 10.72898437 -71.16796875 10.07421875 C-55.09832462 -10.81168759 -21.36971417 -12.29148523 0 0 Z " fill="#00E75F" transform="translate(674.5,93)"/>
<path d="M0 0 C1.01126953 -0.00708984 2.02253906 -0.01417969 3.06445312 -0.02148438 C14.89166383 0.07751996 25.23245503 3.42443476 34.1328125 11.40625 C44.3948384 22.17552432 49.09269216 35.72756653 49.375 50.375 C49.40859619 51.47654419 49.40859619 51.47654419 49.44287109 52.6003418 C49.42854376 55.86584375 49.27800782 57.97202288 47.32501221 60.64178467 C44.14532468 63.03331742 42.19792846 62.92091058 38.24121094 62.89160156 C37.57738403 62.89218567 36.91355713 62.89276978 36.22961426 62.89337158 C34.04316262 62.89059265 31.85808738 62.85951328 29.671875 62.828125 C28.15302271 62.82066184 26.63416078 62.81496926 25.11529541 62.81097412 C21.12346675 62.79572341 17.13222303 62.75644723 13.140625 62.7121582 C9.06518466 62.67119289 4.98964952 62.65296046 0.9140625 62.6328125 C-7.07839302 62.58995175 -15.07037368 62.52170804 -23.0625 62.4375 C-22.46542474 64.1903815 -21.85790677 65.9397079 -21.24609375 67.6875 C-20.90892334 68.66203125 -20.57175293 69.6365625 -20.22436523 70.640625 C-17.81418767 76.4424729 -13.7559141 80.74061964 -8.0625 83.4375 C-0.69409057 85.66222319 6.98709809 85.22530624 13.89453125 81.86328125 C16.2522166 80.21786031 17.65246346 78.41770015 19.375 76.125 C22.27235382 72.55800606 22.27235382 72.55800606 25.13671875 72.0390625 C27.83466468 72.27366649 30.30743451 72.78720908 32.9375 73.4375 C34.68546875 73.81648438 34.68546875 73.81648438 36.46875 74.203125 C39.6370931 74.90567064 42.78867297 75.65276097 45.9375 76.4375 C46.9120192 79.00295115 47.06839117 80.1079957 46.0390625 82.69921875 C38.46948305 95.13495642 29.09675594 102.62120484 15.37890625 107.3125 C1.18216775 110.75993734 -13.50048585 108.7920163 -26.25 101.8125 C-38.77639816 93.6378051 -46.14711433 82.45730896 -50 68.0625 C-53.11448809 52.02288635 -51.19510419 36.14248155 -42.75 21.93359375 C-32.63094317 6.96582219 -17.98460105 -0.35670034 0 0 Z " fill="#00E75E" transform="translate(489.0625,85.5625)"/>
<path d="M0 0 C2.52197266 -0.34057617 2.52197266 -0.34057617 5.6640625 -0.29296875 C6.78554688 -0.28330078 7.90703125 -0.27363281 9.0625 -0.26367188 C10.238125 -0.23853516 11.41375 -0.21339844 12.625 -0.1875 C14.40003906 -0.16719727 14.40003906 -0.16719727 16.2109375 -0.14648438 C19.14107539 -0.11103916 22.07031459 -0.06162769 25 0 C27.98656946 5.73450959 30.4306803 11.48437733 32.64453125 17.5546875 C32.97740646 18.45510773 33.31028168 19.35552795 33.65324402 20.28323364 C34.71064299 23.1455872 35.76190689 26.01014226 36.8125 28.875 C38.19177593 32.62322188 39.57371731 36.37045415 40.95703125 40.1171875 C41.29300323 41.02813171 41.62897522 41.93907593 41.97512817 42.87762451 C45.21169318 51.62633767 48.58418218 60.31994615 52 69 C55.16026001 61.39810644 57.86953454 53.68563612 60.4765625 45.87890625 C61.10491949 44.01255076 61.73328149 42.14619695 62.3619442 40.27994442 C63.89616345 35.72239289 65.42406921 31.1627233 66.95117188 26.6027832 C67.81454041 24.02547229 68.6802587 21.4489723 69.5484314 18.87327576 C70.36251134 16.45729884 71.17287982 14.04006748 71.97915649 11.62147522 C72.53015518 9.98848732 72.53015518 9.98848732 73.09228516 8.32250977 C73.41331207 7.36449966 73.73433899 6.40648956 74.06509399 5.41944885 C75 3 75 3 77 0 C79.52197266 -0.34057617 79.52197266 -0.34057617 82.6640625 -0.29296875 C83.78554688 -0.28330078 84.90703125 -0.27363281 86.0625 -0.26367188 C87.238125 -0.23853516 88.41375 -0.21339844 89.625 -0.1875 C91.40003906 -0.16719727 91.40003906 -0.16719727 93.2109375 -0.14648438 C96.14107539 -0.11103916 99.07031459 -0.06162769 102 0 C103.80960366 4.17210467 101.96127962 7.63495537 100.4140625 11.59375 C99.98211578 12.73704018 99.98211578 12.73704018 99.54144287 13.90342712 C98.57992444 16.43980641 97.60263766 18.96979451 96.625 21.5 C95.94267751 23.28882194 95.26121524 25.0779722 94.58056641 26.86743164 C92.7699485 31.61784377 90.94489716 36.36257473 89.11547852 41.10577393 C88.01642761 43.95737685 86.92069916 46.81023225 85.82617188 49.66357422 C81.9236031 59.83507612 77.99811862 69.99732745 74.04547119 80.1494751 C72.07089043 85.22588592 70.11500246 90.3088311 68.18002319 95.40046692 C67.02338568 98.43917843 65.85616927 101.47375635 64.68682861 104.50759888 C64.15657948 105.89058796 63.6309379 107.27535487 63.11053467 108.66207886 C57.48847707 123.6290461 49.65139116 135.78528391 35.0625 143.16796875 C25.99628222 146.82536342 14.95686069 145.7377405 5.79296875 143.046875 C4 142 4 142 3.1640625 140.3671875 C2.92599207 136.93217131 3.52293522 133.72671801 4.1875 130.375 C4.30158203 129.694375 4.41566406 129.01375 4.53320312 128.3125 C5.47909977 123.45337613 5.47909977 123.45337613 7.6875 121.53125 C10.8051481 120.81503355 13.62023524 120.96590555 16.8125 121.125 C23.04599014 121.18313618 26.23481441 121.07026269 31 117 C34.57360731 112.62681845 37.26668972 108.67749289 38 103 C37.5457249 100.79359885 37.5457249 100.79359885 36.5949707 98.63598633 C36.25833908 97.79493347 35.92170746 96.95388062 35.57487488 96.08734131 C35.19567398 95.17808899 34.81647308 94.26883667 34.42578125 93.33203125 C34.03413284 92.36388489 33.64248444 91.39573853 33.2389679 90.39825439 C32.38738081 88.29785377 31.52983164 86.19986284 30.66705322 84.10403442 C29.30335555 80.79027919 27.95599345 77.47030499 26.61279297 74.14819336 C23.2693491 65.88889062 19.89827351 57.64093981 16.52496338 49.39379883 C13.66352372 42.39666333 10.81256285 35.39545614 7.97640991 28.38803101 C6.63633794 25.09040024 5.28000512 21.79976434 3.9230957 18.5090332 C3.10677204 16.49723709 2.2912185 14.48512825 1.4765625 12.47265625 C1.09220535 11.55309143 0.70784821 10.63352661 0.31184387 9.68609619 C-0.02486832 8.8448822 -0.36158051 8.00366821 -0.70849609 7.13696289 C-1.00791107 6.40619034 -1.30732605 5.67541779 -1.61581421 4.92250061 C-2 3 -2 3 0 0 Z " fill="#00E75F" transform="translate(776,87)"/>
<path d="M0 0 C1.37344385 4.39844322 0.24307502 7.92504555 -0.9375 12.25 C-1.13279297 12.99507812 -1.32808594 13.74015625 -1.52929688 14.5078125 C-2.01104198 16.34079386 -2.50439225 18.17071818 -3 20 C-4.08539062 19.97679688 -5.17078125 19.95359375 -6.2890625 19.9296875 C-7.73436807 19.9109173 -9.17968115 19.89271844 -10.625 19.875 C-11.33785156 19.85824219 -12.05070313 19.84148437 -12.78515625 19.82421875 C-17.19071643 19.78380077 -21.01441605 19.9054739 -25 22 C-27.15140626 26.2902312 -27.35643136 30.63028733 -27.625 35.375 C-27.69976563 36.62023437 -27.77453125 37.86546875 -27.8515625 39.1484375 C-27.90054688 40.08945313 -27.94953125 41.03046875 -28 42 C-27.27820557 41.99476318 -26.55641113 41.98952637 -25.81274414 41.98413086 C-22.56267151 41.96342642 -19.31261272 41.95036082 -16.0625 41.9375 C-14.92619141 41.92912109 -13.78988281 41.92074219 -12.61914062 41.91210938 C-11.53955078 41.90888672 -10.45996094 41.90566406 -9.34765625 41.90234375 C-7.84730835 41.89448853 -7.84730835 41.89448853 -6.31665039 41.88647461 C-4 42 -4 42 -3 43 C-2.72257034 46.11645988 -2.76823528 49.24764923 -2.75 52.375 C-2.729375 53.2515625 -2.70875 54.128125 -2.6875 55.03125 C-2.67976562 56.29582031 -2.67976562 56.29582031 -2.671875 57.5859375 C-2.6625293 58.3598584 -2.65318359 59.1337793 -2.64355469 59.93115234 C-3.10680658 62.61991711 -3.84576508 63.3472676 -6 65 C-8.4519043 65.34057617 -8.4519043 65.34057617 -11.32421875 65.29296875 C-12.35224609 65.28330078 -13.38027344 65.27363281 -14.43945312 65.26367188 C-15.51130859 65.23853516 -16.58316406 65.21339844 -17.6875 65.1875 C-18.77095703 65.17396484 -19.85441406 65.16042969 -20.97070312 65.14648438 C-23.64763405 65.11110643 -26.32356838 65.06174189 -29 65 C-28.99777939 66.00002548 -28.99555878 67.00005096 -28.99327087 68.03038025 C-28.97303932 77.43368339 -28.9580278 86.83698215 -28.94818783 96.24030209 C-28.94295903 101.07516827 -28.93586146 105.91001694 -28.92456055 110.74487305 C-28.91373153 115.4067712 -28.90772314 120.06865246 -28.90512276 124.73056221 C-28.90326853 126.51324288 -28.89964797 128.29592259 -28.89426994 130.07859612 C-28.88705931 132.5666596 -28.88600907 135.05465243 -28.88647461 137.54272461 C-28.88287933 138.28718842 -28.87928406 139.03165222 -28.87557983 139.79867554 C-28.88594784 144.88594784 -28.88594784 144.88594784 -30 146 C-33.80588144 146.25208722 -37.62425456 146.18522344 -41.4375 146.1875 C-42.51322266 146.19974609 -43.58894531 146.21199219 -44.69726562 146.22460938 C-45.72400391 146.22654297 -46.75074219 146.22847656 -47.80859375 146.23046875 C-48.75532959 146.23457764 -49.70206543 146.23868652 -50.67749023 146.24291992 C-53 146 -53 146 -55 144 C-55.1878075 141.47023465 -55.25191906 139.05092595 -55.22705078 136.52099609 C-55.22734283 135.75017197 -55.22763489 134.97934784 -55.22793579 134.18516541 C-55.22653974 131.63114255 -55.21096579 129.07740954 -55.1953125 126.5234375 C-55.19158334 124.75509806 -55.18873591 122.98675655 -55.18673706 121.21841431 C-55.17909293 116.55930905 -55.15943778 111.90032806 -55.1373291 107.24127197 C-55.11688744 102.48899008 -55.10773894 97.73668816 -55.09765625 92.984375 C-55.07619259 83.65619534 -55.04204728 74.32810799 -55 65 C-55.98742187 65.02320312 -56.97484375 65.04640625 -57.9921875 65.0703125 C-59.91417969 65.09738281 -59.91417969 65.09738281 -61.875 65.125 C-63.15117188 65.14820312 -64.42734375 65.17140625 -65.7421875 65.1953125 C-69 65 -69 65 -71 63 C-72.38962286 59.26483537 -72.18373248 55.3082893 -72.1875 51.375 C-72.19974609 50.694375 -72.21199219 50.01375 -72.22460938 49.3125 C-72.22986355 47.54009244 -72.12215906 45.7682006 -72 44 C-70 42 -70 42 -66.5234375 41.8046875 C-65.14049032 41.81798507 -63.75761346 41.84183768 -62.375 41.875 C-61.66859375 41.88402344 -60.9621875 41.89304688 -60.234375 41.90234375 C-58.48943902 41.92592397 -56.74467705 41.96179539 -55 42 C-55.03480469 41.04480469 -55.06960938 40.08960938 -55.10546875 39.10546875 C-55.34565783 27.63358089 -54.42711382 15.40664721 -46.5390625 6.31640625 C-33.96828586 -5.51664876 -15.4269249 -4.66977186 0 0 Z " fill="#00E65E" transform="translate(772,45)"/>
<path d="M0 0 C1.07185547 -0.00128906 2.14371094 -0.00257812 3.24804688 -0.00390625 C4.37146484 -0.00003906 5.49488281 0.00382812 6.65234375 0.0078125 C7.77962891 0.00394531 8.90691406 0.00007813 10.06835938 -0.00390625 C11.13892578 -0.00261719 12.20949219 -0.00132813 13.3125 0 C14.79375366 0.00169189 14.79375366 0.00169189 16.30493164 0.00341797 C18.58984375 0.1328125 18.58984375 0.1328125 19.58984375 1.1328125 C19.69069352 2.97580326 19.72061347 4.82269614 19.72355652 6.66844177 C19.7278215 7.87015015 19.73208649 9.07185852 19.73648071 10.3099823 C19.73613115 11.65383914 19.73566959 12.99769596 19.73510742 14.34155273 C19.73809734 15.74730519 19.74149948 17.15305683 19.74528503 18.55880737 C19.75414626 22.38727711 19.75646403 26.21572452 19.75710082 30.04420352 C19.75804817 33.23522907 19.76172445 36.42624937 19.76527292 39.61727291 C19.77342554 47.14304466 19.77585641 54.66880443 19.77514648 62.19458008 C19.77454547 69.9693157 19.78510006 77.74398199 19.80089015 85.51870006 C19.81394624 92.1836678 19.8193312 98.84861282 19.81869107 105.51359326 C19.81843552 109.49872048 19.82131836 113.48378614 19.83186913 117.46890068 C19.84151774 121.21580072 19.84165171 124.96257991 19.83435249 128.7094841 C19.8333026 130.08738315 19.83569338 131.46528959 19.84171295 132.84317589 C19.84937857 134.71883542 19.84361347 136.59453576 19.83708191 138.47019958 C19.83762668 139.52158835 19.83817144 140.57297712 19.83873272 141.65622616 C19.58984375 144.1328125 19.58984375 144.1328125 17.58984375 146.1328125 C13.77530089 146.58702087 9.92831861 146.45686026 6.08984375 146.4453125 C4.48302734 146.46948242 4.48302734 146.46948242 2.84375 146.49414062 C1.82152344 146.49478516 0.79929687 146.49542969 -0.25390625 146.49609375 C-1.66446289 146.50056519 -1.66446289 146.50056519 -3.10351562 146.50512695 C-4.24530273 146.3208313 -4.24530273 146.3208313 -5.41015625 146.1328125 C-7.70740597 142.68693792 -7.65782406 141.4366242 -7.65066528 137.38117981 C-7.65341461 136.18224594 -7.65616394 134.98331207 -7.65899658 133.74804688 C-7.65180603 132.43102783 -7.64461548 131.11400879 -7.63720703 129.75708008 C-7.63664295 128.35764067 -7.63695942 126.95820066 -7.63809204 125.5587616 C-7.63866667 121.75735589 -7.62689462 117.95607599 -7.61294413 114.15469956 C-7.60045506 110.18286668 -7.59926771 106.21103101 -7.59689331 102.23918152 C-7.59067317 94.71690211 -7.57425514 87.19468072 -7.55419433 79.67242688 C-7.53185193 71.10904593 -7.52084608 62.54566223 -7.51080346 53.98225939 C-7.48988937 36.36574418 -7.45470303 18.749283 -7.41015625 1.1328125 C-4.81461791 -0.16495667 -2.90310098 0.00331215 0 0 Z " fill="#00E85F" transform="translate(559.41015625,44.8671875)"/>
<path d="M0 0 C6.94329699 4.35974462 10.17699277 11.227804 12 19 C12.20808289 21.67535143 12.33499832 24.20605657 12.3125 26.875 C12.30404053 27.92880859 12.30404053 27.92880859 12.29541016 29.00390625 C12.07971091 38.24693951 9.50180818 45.31674601 3 52 C-4.28862506 57.45858067 -12.16815491 57.8740376 -21 57 C-28.44139003 54.82747958 -33.27651654 50.73422091 -37 44 C-41.3395968 35.74981597 -41.32193927 24.98807014 -39.34375 16.02734375 C-36.66036352 8.54393405 -31.94626123 2.19611542 -24.8125 -1.5 C-16.51666083 -4.68526248 -7.85406324 -3.85813633 0 0 Z "  fill="#121212" transform="translate(659,113)"/>
<path d="M0 0 C4.72887161 2.67969391 7.0632732 5.13426225 9.625 9.9375 C10.285 12.9075 10.945 15.8775 11.625 18.9375 C-3.225 18.9375 -18.075 18.9375 -33.375 18.9375 C-32.15172912 10.37460386 -29.55345607 6.67157345 -23.25390625 1.234375 C-16.17919443 -3.64879408 -7.64961585 -3.47605862 0 0 Z " fill="#121212" transform="translate(500.375,110.0625)"/>
<path d="M0 0 C0.33 0 0.66 0 1 0 C1.33 13.53 1.66 27.06 2 41 C0.35 40.67 -1.3 40.34 -3 40 C-3.66 39.01 -4.32 38.02 -5 37 C-3.35 37.66 -1.7 38.32 0 39 C0 26.13 0 13.26 0 0 Z " fill="#00F667" transform="translate(57,192)"/>
<path d="M0 0 C7.92 0 15.84 0 24 0 C21.43863779 2.56136221 20.33438669 2.29666857 16.7734375 2.4140625 C15.7421875 2.45273438 14.7109375 2.49140625 13.6484375 2.53125 C12.56820312 2.5621875 11.48796875 2.593125 10.375 2.625 C8.74304688 2.68300781 8.74304688 2.68300781 7.078125 2.7421875 C4.38558835 2.83666247 1.69306243 2.92222431 -1 3 C-0.67 2.01 -0.34 1.02 0 0 Z " fill="#00F569" transform="translate(853,87)"/>
<path d="M0 0 C2.97 0.33 5.94 0.66 9 1 C10 5 10 5 9.22265625 6.921875 C8.1484375 8.61458333 7.07421875 10.30729167 6 12 C5.34 11.67 4.68 11.34 4 11 C4.66 10.01 5.32 9.02 6 8 C6.39013716 6.0103005 6.73202649 4.00980131 7 2 C4.69 1.67 2.38 1.34 0 1 C0 0.67 0 0.34 0 0 Z " fill="#01EE69" transform="translate(526,161)"/>
<path d="M0 0 C0 0.66 0 1.32 0 2 C-4.455 3.485 -4.455 3.485 -9 5 C-9.66 4.34 -10.32 3.68 -11 3 C-9.54293274 2.49632243 -8.08429904 1.99717444 -6.625 1.5 C-5.81289062 1.2215625 -5.00078125 0.943125 -4.1640625 0.65625 C-2 0 -2 0 0 0 Z M-11 5 C-9 6 -9 6 -9 6 Z " fill="#121212" transform="translate(149,245)"/>
<path d="M0 0 C2.72426311 2.35277269 3.8141763 4.62496331 5 8 C3.68 8 2.36 8 1 8 C0.67 5.36 0.34 2.72 0 0 Z " fill="#121212" transform="translate(59,95)"/>
</svg>
